<?xml version="1.0" encoding="UTF-8"?>
<svg xmlns="http://www.w3.org/2000/svg" width="2100" height="900" viewBox="0 0 2100 900">
  <rect width="2100" height="900" fill="#fafaf8"/>
  <g opacity=".42">
    <line x1="80" y1="0" x2="80" y2="900" stroke="#d4d4d2" stroke-width="1"/><line x1="176" y1="0" x2="176" y2="900" stroke="#d4d4d2" stroke-width="1"/><line x1="272" y1="0" x2="272" y2="900" stroke="#d4d4d2" stroke-width="1"/><line x1="368" y1="0" x2="368" y2="900" stroke="#d4d4d2" stroke-width="1"/><line x1="464" y1="0" x2="464" y2="900" stroke="#d4d4d2" stroke-width="1"/><line x1="560" y1="0" x2="560" y2="900" stroke="#d4d4d2" stroke-width="1"/><line x1="656" y1="0" x2="656" y2="900" stroke="#d4d4d2" stroke-width="1"/><line x1="752" y1="0" x2="752" y2="900" stroke="#d4d4d2" stroke-width="1"/><line x1="848" y1="0" x2="848" y2="900" stroke="#d4d4d2" stroke-width="1"/><line x1="944" y1="0" x2="944" y2="900" stroke="#d4d4d2" stroke-width="1"/><line x1="1040" y1="0" x2="1040" y2="900" stroke="#d4d4d2" stroke-width="1"/><line x1="1136" y1="0" x2="1136" y2="900" stroke="#d4d4d2" stroke-width="1"/><line x1="1232" y1="0" x2="1232" y2="900" stroke="#d4d4d2" stroke-width="1"/><line x1="1328" y1="0" x2="1328" y2="900" stroke="#d4d4d2" stroke-width="1"/><line x1="1424" y1="0" x2="1424" y2="900" stroke="#d4d4d2" stroke-width="1"/><line x1="1520" y1="0" x2="1520" y2="900" stroke="#d4d4d2" stroke-width="1"/><line x1="1616" y1="0" x2="1616" y2="900" stroke="#d4d4d2" stroke-width="1"/><line x1="1712" y1="0" x2="1712" y2="900" stroke="#d4d4d2" stroke-width="1"/><line x1="1808" y1="0" x2="1808" y2="900" stroke="#d4d4d2" stroke-width="1"/><line x1="1904" y1="0" x2="1904" y2="900" stroke="#d4d4d2" stroke-width="1"/>
    <line x1="0" y1="96" x2="2100" y2="96" stroke="#d4d4d2" stroke-width="1"/><line x1="0" y1="192" x2="2100" y2="192" stroke="#d4d4d2" stroke-width="1"/><line x1="0" y1="288" x2="2100" y2="288" stroke="#d4d4d2" stroke-width="1"/><line x1="0" y1="384" x2="2100" y2="384" stroke="#d4d4d2" stroke-width="1"/><line x1="0" y1="480" x2="2100" y2="480" stroke="#d4d4d2" stroke-width="1"/><line x1="0" y1="576" x2="2100" y2="576" stroke="#d4d4d2" stroke-width="1"/><line x1="0" y1="672" x2="2100" y2="672" stroke="#d4d4d2" stroke-width="1"/><line x1="0" y1="768" x2="2100" y2="768" stroke="#d4d4d2" stroke-width="1"/>
  </g>
  <text x="140" y="125" fill="#002FA7" font-family="JetBrains Mono, monospace" font-size="26" letter-spacing="8">S22-HERO-21X9 · SYSTEM MAP</text>
  <text x="140" y="220" fill="#0a0a0a" font-family="Inter, Noto Sans TC, sans-serif" font-size="86" font-weight="200">Dolby 授權生態系</text>
  
        <path d="M640 386 C820 220 1280 220 1455 386" fill="none" stroke="#002FA7" stroke-width="6"/>
        <path d="M1455 528 C1280 700 820 700 640 528" fill="none" stroke="#002FA7" stroke-width="6"/>
        <rect x="1018" y="430" width="64" height="64" fill="#002FA7"/>
      
  
        <g>
          <rect x="140" y="315" width="500" height="142" fill="#f0f0ee"/>
          <text x="168" y="363" fill="#0a0a0a" font-family="Inter, Noto Sans TC, sans-serif" font-size="30" font-weight="600">01 / 晶片商</text>
          <text x="168" y="411" fill="#0a0a0a" font-family="Inter, Noto Sans TC, sans-serif" font-size="48" font-weight="300">實作授權</text>
          <text x="168" y="443" fill="#0a0a0a" font-family="Inter, Noto Sans TC, sans-serif" font-size="23" font-weight="300">技術整合進晶片</text>
        </g>
        <g>
          <rect x="750" y="315" width="500" height="142" fill="#002FA7"/>
          <text x="778" y="363" fill="#ffffff" font-family="Inter, Noto Sans TC, sans-serif" font-size="30" font-weight="600">02 / 設備商</text>
          <text x="778" y="411" fill="#ffffff" font-family="Inter, Noto Sans TC, sans-serif" font-size="48" font-weight="300">系統授權</text>
          <text x="778" y="443" fill="#ffffff" font-family="Inter, Noto Sans TC, sans-serif" font-size="23" font-weight="300">每台出貨付費</text>
        </g>
        <g>
          <rect x="1360" y="315" width="500" height="142" fill="#f0f0ee"/>
          <text x="1388" y="363" fill="#0a0a0a" font-family="Inter, Noto Sans TC, sans-serif" font-size="30" font-weight="600">03 / 內容平台</text>
          <text x="1388" y="411" fill="#0a0a0a" font-family="Inter, Noto Sans TC, sans-serif" font-size="48" font-weight="300">格式輸出</text>
          <text x="1388" y="443" fill="#0a0a0a" font-family="Inter, Noto Sans TC, sans-serif" font-size="23" font-weight="300">串流與標準綁定</text>
        </g>
        <g>
          <rect x="140" y="545" width="500" height="142" fill="#f0f0ee"/>
          <text x="168" y="593" fill="#0a0a0a" font-family="Inter, Noto Sans TC, sans-serif" font-size="30" font-weight="600">04 / 消費者</text>
          <text x="168" y="641" fill="#0a0a0a" font-family="Inter, Noto Sans TC, sans-serif" font-size="48" font-weight="300">品質訊號</text>
          <text x="168" y="673" fill="#0a0a0a" font-family="Inter, Noto Sans TC, sans-serif" font-size="23" font-weight="300">品牌成為期待</text>
        </g>
        <g>
          <rect x="750" y="545" width="500" height="142" fill="#f0f0ee"/>
          <text x="778" y="593" fill="#0a0a0a" font-family="Inter, Noto Sans TC, sans-serif" font-size="30" font-weight="600">05 / 認證</text>
          <text x="778" y="641" fill="#0a0a0a" font-family="Inter, Noto Sans TC, sans-serif" font-size="48" font-weight="300">上市前測試</text>
          <text x="778" y="673" fill="#0a0a0a" font-family="Inter, Noto Sans TC, sans-serif" font-size="23" font-weight="300">控制體驗與信任</text>
        </g>
        <g>
          <rect x="1360" y="545" width="500" height="142" fill="#0a0a0a"/>
          <text x="1388" y="593" fill="#ffffff" font-family="Inter, Noto Sans TC, sans-serif" font-size="30" font-weight="600">06 / 稽核</text>
          <text x="1388" y="641" fill="#ffffff" font-family="Inter, Noto Sans TC, sans-serif" font-size="48" font-weight="300">收入防漏</text>
          <text x="1388" y="673" fill="#ffffff" font-family="Inter, Noto Sans TC, sans-serif" font-size="23" font-weight="300">雙邊報告交叉驗證</text>
        </g>
  <rect x="140" y="770" width="1820" height="2" fill="#0a0a0a" opacity=".82"/>
</svg>