<?xml version="1.0" encoding="UTF-8"?>
<svg xmlns="http://www.w3.org/2000/svg" width="2100" height="900" viewBox="0 0 2100 900">
  <rect width="2100" height="900" fill="#fafaf8"/>
  <g opacity=".42">
    <line x1="80" y1="0" x2="80" y2="900" stroke="#d4d4d2" stroke-width="1"/><line x1="176" y1="0" x2="176" y2="900" stroke="#d4d4d2" stroke-width="1"/><line x1="272" y1="0" x2="272" y2="900" stroke="#d4d4d2" stroke-width="1"/><line x1="368" y1="0" x2="368" y2="900" stroke="#d4d4d2" stroke-width="1"/><line x1="464" y1="0" x2="464" y2="900" stroke="#d4d4d2" stroke-width="1"/><line x1="560" y1="0" x2="560" y2="900" stroke="#d4d4d2" stroke-width="1"/><line x1="656" y1="0" x2="656" y2="900" stroke="#d4d4d2" stroke-width="1"/><line x1="752" y1="0" x2="752" y2="900" stroke="#d4d4d2" stroke-width="1"/><line x1="848" y1="0" x2="848" y2="900" stroke="#d4d4d2" stroke-width="1"/><line x1="944" y1="0" x2="944" y2="900" stroke="#d4d4d2" stroke-width="1"/><line x1="1040" y1="0" x2="1040" y2="900" stroke="#d4d4d2" stroke-width="1"/><line x1="1136" y1="0" x2="1136" y2="900" stroke="#d4d4d2" stroke-width="1"/><line x1="1232" y1="0" x2="1232" y2="900" stroke="#d4d4d2" stroke-width="1"/><line x1="1328" y1="0" x2="1328" y2="900" stroke="#d4d4d2" stroke-width="1"/><line x1="1424" y1="0" x2="1424" y2="900" stroke="#d4d4d2" stroke-width="1"/><line x1="1520" y1="0" x2="1520" y2="900" stroke="#d4d4d2" stroke-width="1"/><line x1="1616" y1="0" x2="1616" y2="900" stroke="#d4d4d2" stroke-width="1"/><line x1="1712" y1="0" x2="1712" y2="900" stroke="#d4d4d2" stroke-width="1"/><line x1="1808" y1="0" x2="1808" y2="900" stroke="#d4d4d2" stroke-width="1"/><line x1="1904" y1="0" x2="1904" y2="900" stroke="#d4d4d2" stroke-width="1"/>
    <line x1="0" y1="96" x2="2100" y2="96" stroke="#d4d4d2" stroke-width="1"/><line x1="0" y1="192" x2="2100" y2="192" stroke="#d4d4d2" stroke-width="1"/><line x1="0" y1="288" x2="2100" y2="288" stroke="#d4d4d2" stroke-width="1"/><line x1="0" y1="384" x2="2100" y2="384" stroke="#d4d4d2" stroke-width="1"/><line x1="0" y1="480" x2="2100" y2="480" stroke="#d4d4d2" stroke-width="1"/><line x1="0" y1="576" x2="2100" y2="576" stroke="#d4d4d2" stroke-width="1"/><line x1="0" y1="672" x2="2100" y2="672" stroke="#d4d4d2" stroke-width="1"/><line x1="0" y1="768" x2="2100" y2="768" stroke="#d4d4d2" stroke-width="1"/>
  </g>
  <text x="140" y="125" fill="#002FA7" font-family="JetBrains Mono, monospace" font-size="26" letter-spacing="8">S22-HERO-21X9 · PROCESS SYSTEM</text>
  <text x="140" y="220" fill="#0a0a0a" font-family="Inter, Noto Sans TC, sans-serif" font-size="86" font-weight="200">台積電製程 know-how 系統</text>
  
        <line x1="640" y1="386" x2="750" y2="386" stroke="#d4d4d2" stroke-width="4"/>
        <line x1="1250" y1="386" x2="1360" y2="386" stroke="#d4d4d2" stroke-width="4"/>
        <line x1="640" y1="616" x2="750" y2="616" stroke="#d4d4d2" stroke-width="4"/>
        <line x1="1250" y1="616" x2="1360" y2="616" stroke="#d4d4d2" stroke-width="4"/>
      
  
        <g>
          <rect x="140" y="315" width="500" height="142" fill="#f0f0ee"/>
          <text x="168" y="363" fill="#0a0a0a" font-family="Inter, Noto Sans TC, sans-serif" font-size="30" font-weight="600">01 / 製程窗口</text>
          <text x="168" y="411" fill="#0a0a0a" font-family="Inter, Noto Sans TC, sans-serif" font-size="48" font-weight="300">溫度壓力</text>
          <text x="168" y="443" fill="#0a0a0a" font-family="Inter, Noto Sans TC, sans-serif" font-size="23" font-weight="300">氣體、時序、雜質容忍</text>
        </g>
        <g>
          <rect x="750" y="315" width="500" height="142" fill="#f0f0ee"/>
          <text x="778" y="363" fill="#0a0a0a" font-family="Inter, Noto Sans TC, sans-serif" font-size="30" font-weight="600">02 / 設備配方</text>
          <text x="778" y="411" fill="#0a0a0a" font-family="Inter, Noto Sans TC, sans-serif" font-size="48" font-weight="300">機台調校</text>
          <text x="778" y="443" fill="#0a0a0a" font-family="Inter, Noto Sans TC, sans-serif" font-size="23" font-weight="300">每台機器的最佳參數</text>
        </g>
        <g>
          <rect x="1360" y="315" width="500" height="142" fill="#002FA7"/>
          <text x="1388" y="363" fill="#ffffff" font-family="Inter, Noto Sans TC, sans-serif" font-size="30" font-weight="600">03 / 良率資料</text>
          <text x="1388" y="411" fill="#ffffff" font-family="Inter, Noto Sans TC, sans-serif" font-size="48" font-weight="300">失敗記憶</text>
          <text x="1388" y="443" fill="#ffffff" font-family="Inter, Noto Sans TC, sans-serif" font-size="23" font-weight="300">知道什麼不能做</text>
        </g>
        <g>
          <rect x="140" y="545" width="500" height="142" fill="#f0f0ee"/>
          <text x="168" y="593" fill="#0a0a0a" font-family="Inter, Noto Sans TC, sans-serif" font-size="30" font-weight="600">04 / 缺陷診斷</text>
          <text x="168" y="641" fill="#0a0a0a" font-family="Inter, Noto Sans TC, sans-serif" font-size="48" font-weight="300">早期訊號</text>
          <text x="168" y="673" fill="#0a0a0a" font-family="Inter, Noto Sans TC, sans-serif" font-size="23" font-weight="300">預測良率崩潰</text>
        </g>
        <g>
          <rect x="750" y="545" width="500" height="142" fill="#f0f0ee"/>
          <text x="778" y="593" fill="#0a0a0a" font-family="Inter, Noto Sans TC, sans-serif" font-size="30" font-weight="600">05 / 供應商</text>
          <text x="778" y="641" fill="#0a0a0a" font-family="Inter, Noto Sans TC, sans-serif" font-size="48" font-weight="300">材料批次</text>
          <text x="778" y="673" fill="#0a0a0a" font-family="Inter, Noto Sans TC, sans-serif" font-size="23" font-weight="300">化學品與變異控制</text>
        </g>
        <g>
          <rect x="1360" y="545" width="500" height="142" fill="#0a0a0a"/>
          <text x="1388" y="593" fill="#ffffff" font-family="Inter, Noto Sans TC, sans-serif" font-size="30" font-weight="600">06 / 客戶協作</text>
          <text x="1388" y="641" fill="#ffffff" font-family="Inter, Noto Sans TC, sans-serif" font-size="48" font-weight="300">量產節奏</text>
          <text x="1388" y="673" fill="#ffffff" font-family="Inter, Noto Sans TC, sans-serif" font-size="23" font-weight="300">投產、迭代、保密</text>
        </g>
  <rect x="140" y="770" width="1820" height="2" fill="#0a0a0a" opacity=".82"/>
</svg>